<svg xmlns="http://www.w3.org/2000/svg" version="1.1" xmlns:xlink="http://www.w3.org/1999/xlink" xmlns:svgjs="http://svgjs.dev/svgjs" width="128" height="128" viewBox="0 0 128 128"><g transform="matrix(0.8046875,0,0,0.8046875,12.612792253521128,12.612792253521128)"><svg viewBox="0 0 142 142" data-background-color="#ffffff" preserveAspectRatio="xMidYMid meet" height="128" width="128" xmlns="http://www.w3.org/2000/svg" xmlns:xlink="http://www.w3.org/1999/xlink"><g id="tight-bounds" transform="matrix(1,0,0,1,-0.15550000000000352,-0.15550000000000352)"><svg viewBox="0 0 142.31066447748242 142.31066447748242" height="142.31066447748242" width="142.31066447748242"><g><svg></svg></g><g><svg viewBox="0 0 142.31066447748242 142.31066447748242" height="142.31066447748242" width="142.31066447748242"><g><path d="M0 71.155c0-39.298 31.857-71.155 71.155-71.155 39.298 0 71.155 31.857 71.156 71.155 0 39.298-31.857 71.155-71.156 71.156-39.298 0-71.155-31.857-71.155-71.156zM71.155 134.886c35.197 0 63.731-28.533 63.731-63.731 0-35.197-28.533-63.731-63.731-63.73-35.197 0-63.731 28.533-63.73 63.73 0 35.197 28.533 63.731 63.73 63.731z" data-fill-palette-color="tertiary" fill="#222222" stroke="transparent"></path><ellipse rx="68.30911894919156" ry="68.30911894919156" cx="71.15533223874121" cy="71.15533223874121" fill="#222222" stroke="transparent" stroke-width="0" fill-opacity="1" data-fill-palette-color="tertiary"></ellipse></g><g transform="matrix(1,0,0,1,38.1087910720089,29.9891082767465)"><svg viewBox="0 0 66.09308233346462 82.33244792398942" height="82.33244792398942" width="66.09308233346462"><g><svg viewBox="0 0 66.09308233346462 82.33244792398942" height="82.33244792398942" width="66.09308233346462"><g><svg viewBox="0 0 66.09308233346462 82.33244792398942" height="82.33244792398942" width="66.09308233346462"><g id="textblocktransform"><svg viewBox="0 0 66.09308233346462 82.33244792398942" height="82.33244792398942" width="66.09308233346462" id="textblock"><g><svg viewBox="0 0 66.09308233346462 82.33244792398942" height="82.33244792398942" width="66.09308233346462"><g transform="matrix(1,0,0,1,0,0)"><svg width="66.09308233346462" viewBox="4.45 -36.25 29.099999999999998 36.25" height="82.33244792398942" data-palette-color="#e83d95"><path d="M4.45 0L4.45-36.25 13.55-36.25Q19.05-36.25 22.85-34.6 26.65-32.95 29.03-30.28 31.4-27.6 32.48-24.28 33.55-20.95 33.55-17.65L33.55-17.65Q33.55-13.6 32.1-10.33 30.65-7.05 28.15-4.75 25.65-2.45 22.35-1.23 19.05 0 15.35 0L15.35 0 4.45 0ZM9.9-5.2L14.55-5.2Q17.45-5.2 19.93-6.05 22.4-6.9 24.23-8.53 26.05-10.15 27.08-12.53 28.1-14.9 28.1-18L28.1-18Q28.1-21.3 26.95-23.75 25.8-26.2 23.95-27.83 22.1-29.45 19.78-30.23 17.45-31 15.05-31L15.05-31 9.9-31 9.9-5.2Z" opacity="1" transform="matrix(1,0,0,1,0,0)" fill="#e83d95" class="undefined-text-0" data-fill-palette-color="quaternary" id="text-0"></path></svg></g></svg></g></svg></g></svg></g><g></g></svg></g></svg></g></svg></g><defs></defs></svg><rect width="142.31066447748242" height="142.31066447748242" fill="none" stroke="none" visibility="hidden"></rect></g></svg></g></svg>