<svg xmlns="http://www.w3.org/2000/svg" version="1.1" xmlns:xlink="http://www.w3.org/1999/xlink" xmlns:svgjs="http://svgjs.dev/svgjs" width="1000" height="750" viewBox="0 0 1000 750"><rect width="1000" height="750" fill="#ffffff"></rect><g transform="matrix(0.584,0,0,0.584,207.9169461077845,82.91694610778441)"><svg viewBox="0 0 334 334" data-background-color="#ffffff" preserveAspectRatio="xMidYMid meet" height="1000" width="1000" xmlns="http://www.w3.org/2000/svg" xmlns:xlink="http://www.w3.org/1999/xlink"><g id="tight-bounds" transform="matrix(1,0,0,1,0.04749999999998522,0.04750000000001364)"><svg viewBox="0 0 333.90454557049503 333.90454557049503" height="333.90454557049503" width="333.90454557049503"><g><svg></svg></g><g><svg viewBox="0 0 333.90454557049503 333.90454557049503" height="333.90454557049503" width="333.90454557049503"><g><path d="M0 166.952c0-92.205 74.747-166.952 166.952-166.952 92.205 0 166.952 74.747 166.953 166.952 0 92.205-74.747 166.952-166.953 166.953-92.205 0-166.952-74.747-166.952-166.953zM166.952 316.63c82.665 0 149.677-67.013 149.678-149.678 0-82.665-67.013-149.677-149.678-149.677-82.665 0-149.677 67.013-149.677 149.677 0 82.665 67.013 149.677 149.677 149.678z" data-fill-palette-color="tertiary" fill="#222222" stroke="transparent"></path><ellipse rx="160.27418187383762" ry="160.27418187383762" cx="166.95227278524752" cy="166.95227278524752" fill="#222222" stroke="transparent" stroke-width="0" fill-opacity="1" data-fill-palette-color="tertiary"></ellipse></g><g transform="matrix(1,0,0,1,90.06467775476101,71.17305217166896)"><svg viewBox="0 0 153.77519006097302 191.55844122715712" height="191.55844122715712" width="153.77519006097302"><g><svg viewBox="0 0 153.77519006097302 191.55844122715712" height="191.55844122715712" width="153.77519006097302"><g><svg viewBox="0 0 153.77519006097302 191.55844122715712" height="191.55844122715712" width="153.77519006097302"><g><svg viewBox="0 0 153.77519006097302 191.55844122715712" height="191.55844122715712" width="153.77519006097302"><g id="textblocktransform"><svg viewBox="0 0 153.77519006097302 191.55844122715712" height="191.55844122715712" width="153.77519006097302" id="textblock"><g><svg viewBox="0 0 153.77519006097302 191.55844122715712" height="191.55844122715712" width="153.77519006097302"><g transform="matrix(1,0,0,1,0,0)"><svg width="153.77519006097302" viewBox="4.449999809265137 -36.25 29.099998474121094 36.25" height="191.55844122715712" data-palette-color="#e83d95"><path d="M4.45 0L4.45-36.25 13.55-36.25Q19.05-36.25 22.85-34.6 26.65-32.95 29.03-30.28 31.4-27.6 32.48-24.28 33.55-20.95 33.55-17.65L33.55-17.65Q33.55-13.6 32.1-10.33 30.65-7.05 28.15-4.75 25.65-2.45 22.35-1.23 19.05 0 15.35 0L15.35 0 4.45 0ZM9.9-5.2L14.55-5.2Q17.45-5.2 19.93-6.05 22.4-6.9 24.23-8.53 26.05-10.15 27.08-12.53 28.1-14.9 28.1-18L28.1-18Q28.1-21.3 26.95-23.75 25.8-26.2 23.95-27.83 22.1-29.45 19.78-30.23 17.45-31 15.05-31L15.05-31 9.9-31 9.9-5.2Z" opacity="1" transform="matrix(1,0,0,1,0,0)" fill="#e83d95" class="undefined-text-0" data-fill-palette-color="quaternary" id="text-0"></path></svg></g></svg></g></svg></g></svg></g><g></g></svg></g></svg></g></svg></g></svg></g><defs></defs></svg><rect width="333.90454557049503" height="333.90454557049503" fill="none" stroke="none" visibility="hidden"></rect></g></svg></g></svg>